<?xml version="1.0" encoding="UTF-8"?>
<svg width="95px" height="36px" viewBox="0 0 95 36" version="1.1" xmlns="http://www.w3.org/2000/svg" xmlns:xlink="http://www.w3.org/1999/xlink">
    <title>Alpha Solway</title>
    <defs>
        <polygon id="path-1" points="0.00303649635 0.11214 25.9022628 0.11214 25.9022628 8.9892 0.00303649635 8.9892"></polygon>
    </defs>
    <g id="Desktop" stroke="none" stroke-width="1" fill="none" fill-rule="evenodd">
        <g id="01-Home" transform="translate(-619.000000, -1136.000000)">
            <g id="Group-2" transform="translate(0.000000, 924.000000)">
                <g id="Alpha-Solway" transform="translate(619.000000, 212.000000)">
                    <polyline id="Fill-1" fill="#E6792B" points="15.7211274 22 4.72112742 22 7.24984672 17 13.2213616 17 15.7211274 22"></polyline>
                    <polyline id="Fill-2" fill="#E6792B" points="8.51888195 0 11.7211274 6.64478448 4.43643469 22 0.721127424 16.5031935 8.51888195 0"></polyline>
                    <polyline id="Fill-3" fill="#E6792B" points="16.1500137 0.000939231708 9.72112742 0 20.2626861 22 26.7211274 22 16.1500137 0.000939231708"></polyline>
                    <polyline id="Fill-4" fill="#0F0D0C" points="27.7211274 4 31.7013724 4 31.7013724 18.4003814 40.7211274 18.4003814 40.7211274 22 27.7211274 22 27.7211274 4"></polyline>
                    <path d="M50.1940226,13.0769426 C52.2788841,13.0769426 53.4973957,11.8941046 53.4973957,10.3512474 L53.4973957,10.3003337 C53.4973957,8.52502781 52.198172,7.57425711 50.112909,7.57425711 L46.8910511,7.57425711 L46.8910511,13.0769426 L50.1940226,13.0769426 Z M42.7211274,4 L50.4658738,4 C54.9865537,4 57.7211274,6.54549499 57.7211274,10.223105 L57.7211274,10.2734467 C57.7211274,14.4403623 54.3101383,16.6000953 50.0586994,16.6000953 L46.8910511,16.6000953 L46.8910511,22 L42.7211274,22 L42.7211274,4 L42.7211274,4 Z" id="Fill-5" fill="#0F0D0C"></path>
                    <polyline id="Fill-6" fill="#0F0D0C" points="59.7211274 4 63.6233633 4 63.6233633 11.1221993 70.8187037 11.1221993 70.8187037 4 74.7211274 4 74.7211274 22 70.8187037 22 70.8187037 14.7740664 63.6233633 14.7740664 63.6233633 22 59.7211274 22 59.7211274 4"></polyline>
                    <path d="M87.5518141,14.5187601 L85.1703344,8.72280133 L82.7892345,14.5187601 L87.5518141,14.5187601 Z M83.4036874,4 L87.0395168,4 L94.7211274,22 L90.5990144,22 L88.9595872,17.9917534 L81.380512,17.9917534 L79.7418444,22 L75.7211274,22 L83.4036874,4 L83.4036874,4 Z" id="Fill-7" fill="#0F0D0C"></path>
                    <g id="Group-11" transform="translate(0.721127, 27.000000)">
                        <mask id="mask-2" fill="white">
                            <use xlink:href="#path-1"></use>
                        </mask>
                        <g id="Clip-9"></g>
                        <path d="M0.00303649635,7.6005 L1.18081752,6.26238 C1.99630657,6.90084 2.85051095,7.3062 3.88614599,7.3062 C4.70144526,7.3062 5.1929781,6.99894 5.1929781,6.49584 L5.1929781,6.47118 C5.1929781,5.99256 4.88268613,5.74704 3.36823358,5.37858 C1.54329927,4.93686 0.365518248,4.4577 0.365518248,2.75148 L0.365518248,2.727 C0.365518248,1.16802 1.68582482,0.1368 3.53656934,0.1368 C4.85668613,0.1368 5.98265693,0.52956 6.90176642,1.22922 L5.86632117,2.65338 C5.06411679,2.12526 4.27443796,1.8063 3.51056934,1.8063 C2.74708029,1.8063 2.34588321,2.13768 2.34588321,2.5551 L2.34588321,2.57976 C2.34588321,3.14442 2.73417518,3.32838 4.30024818,3.7089 C6.13808759,4.16322 7.17334307,4.78944 7.17334307,6.28722 L7.17334307,6.3117 C7.17334307,8.01792 5.80160584,8.9757 3.84724088,8.9757 C2.47550365,8.9757 1.09029197,8.52138 0.00303649635,7.6005" id="Fill-8" fill="#0F0D0C" mask="url(#mask-2)"></path>
                        <path d="M23.8182774,4.58082 L23.8182774,4.55616 C23.8182774,3.08304 22.6795912,1.85526 21.0744234,1.85526 C19.469635,1.85526 18.3565693,3.05838 18.3565693,4.5315 L18.3565693,4.55616 C18.3565693,6.0291 19.4954453,7.25688 21.1002336,7.25688 C22.7054015,7.25688 23.8182774,6.05394 23.8182774,4.58082 Z M16.2727737,4.58082 L16.2727737,4.55616 C16.2727737,2.11302 18.3049489,0.11214 21.1002336,0.11214 C23.8960876,0.11214 25.9022628,2.08872 25.9022628,4.5315 L25.9022628,4.55616 C25.9022628,6.99894 23.8700876,9 21.0744234,9 C18.2787591,9 16.2727737,7.0236 16.2727737,4.58082 L16.2727737,4.58082 Z" id="Fill-10" fill="#0F0D0C" mask="url(#mask-2)"></path>
                    </g>
                    <polyline id="Fill-12" fill="#0F0D0C" points="35.7211274 27 37.5578764 27 37.5578764 34.2000377 41.7211274 34.2000377 41.7211274 36 35.7211274 36 35.7211274 27"></polyline>
                    <polyline id="Fill-13" fill="#0F0D0C" points="48.7211274 27.0253842 50.8964139 27.0253842 52.8076662 33.0591675 54.8774163 27 56.6174135 27 58.6869703 33.0591675 60.5989957 27.0253842 62.7211274 27.0253842 59.5704992 36 57.8040213 36 55.7211274 30.1696634 53.6384269 36 51.8721422 36 48.7211274 27.0253842"></polyline>
                    <path d="M75.3247634,32.2595774 L74.1968512,29.361653 L73.0689389,32.2595774 L75.3247634,32.2595774 Z M73.3598983,27 L75.0823566,27 L78.7211274,36 L76.7680003,36 L75.9918714,33.9958612 L72.4018309,33.9958612 L71.6253464,36 L69.7211274,36 L73.3598983,27 L73.3598983,27 Z" id="Fill-14" fill="#0F0D0C"></path>
                    <polyline id="Fill-15" fill="#0F0D0C" points="89.2198667 32.4513521 85.7211274 27 88.0621381 27 90.2343809 30.6127438 92.4453355 27 94.7211274 27 91.2225788 32.4128946 91.2225788 36 89.2198667 36 89.2198667 32.4513521"></polyline>
                </g>
            </g>
        </g>
    </g>
</svg>