<?xml version="1.0" encoding="UTF-8"?>
<svg width="126px" height="22px" viewBox="0 0 126 22" version="1.1" xmlns="http://www.w3.org/2000/svg" xmlns:xlink="http://www.w3.org/1999/xlink">
    <title>Haika</title>
    <g id="Desktop" stroke="none" stroke-width="1" fill="none" fill-rule="evenodd">
        <g id="01-Home" transform="translate(-810.000000, -1143.000000)">
            <g id="Group-2" transform="translate(0.000000, 924.000000)">
                <g id="Haika" transform="translate(810.000000, 219.000000)">
                    <polygon id="Fill-1" fill="#00573C" points="0.139562467 22 20.1395625 22 20.1395625 13 0.139562467 13"></polygon>
                    <polygon id="Fill-2" fill="#8CA492" points="0.139562467 10 20.1395625 10 20.1395625 1 0.139562467 1"></polygon>
                    <g id="Group-8" transform="translate(9.139562, 1.000000)" stroke-width="2.531">
                        <line x1="0.2852" y1="0.177475728" x2="0.2852" y2="8.52815534" id="Stroke-3" stroke="#417359"></line>
                        <line x1="0.791" y1="0.177475728" x2="0.791" y2="8.52815534" id="Stroke-5" stroke="#CDD7CB"></line>
                        <line x1="0.2852" y1="11.5904854" x2="0.2852" y2="19.941165" id="Stroke-6" stroke="#004430"></line>
                        <line x1="0.791" y1="11.5904854" x2="0.791" y2="19.941165" id="Stroke-7" stroke="#567F67"></line>
                    </g>
                    <path d="M35.3165033,12.4195653 L35.3165033,17.436432 C35.3165033,18.6823259 35.3475607,19.5136316 35.4087169,19.9284134 C35.5427238,20.8125588 35.9537549,21.4712161 36.6435357,21.9084499 L36.6435357,22 L28.1395625,22 L28.1395625,21.9084499 C28.7877417,21.4292153 29.2004982,20.7701709 29.3741895,19.9284134 C29.4363043,19.3684676 29.4681286,18.5375491 29.4681286,17.436432 L29.4681286,5.56511641 C29.4681286,4.31806116 29.4363043,3.48733617 29.3741895,3.07236078 C29.2417164,2.19034452 28.8297267,1.53033236 28.1395625,1.09406625 L28.1395625,1 L36.6435357,1 L36.6435357,1.09406625 C35.9646825,1.57039761 35.5427238,2.23002267 35.3774678,3.07236078 C35.3774678,3.35204336 35.3682656,3.76798651 35.3475607,4.31806116 C35.3262806,4.86910358 35.3165033,5.28427252 35.3165033,5.56511641 L35.3165033,9.21047393 L40.9641553,9.21047393 L40.9641553,5.56511641 C40.9641553,4.31806116 40.9334814,3.48733617 40.87175,3.07236078 C40.7383183,2.17911851 40.3257534,1.51929989 39.6375064,1.09406625 L39.6375064,1 L48.1395625,1 L48.1395625,1.09406625 C47.4913833,1.57039761 47.0805438,2.23002267 46.9053188,3.07236078 C46.8443543,3.63211303 46.8125301,4.46322513 46.8125301,5.56511641 L46.8125301,17.436432 C46.8125301,18.69181 46.8443543,19.5242769 46.9053188,19.9284134 C47.0393257,20.8017198 47.450932,21.4605707 48.1395625,21.9084499 L48.1395625,22 L39.6375064,22 L39.6375064,21.9084499 C40.3370645,21.3988276 40.7477122,20.7388155 40.87175,19.9284134 C40.9334814,19.5345352 40.9641553,18.7032296 40.9641553,17.436432 L40.9641553,12.4195653 L35.3165033,12.4195653" id="Fill-9" fill="#00573C"></path>
                    <path d="M58.066892,6.39643277 L55.9084626,12.683408 L60.3104943,12.683408 L58.066892,6.39643277 Z M61.3628483,15.6457813 L54.9768354,15.6457813 L53.8012151,18.9661443 C53.6703302,19.3393552 53.6062552,19.7225851 53.6062552,20.1179536 C53.6578278,20.6892341 53.9065091,21.1653332 54.348783,21.551068 L54.7578473,21.9077088 L54.7578473,22 L48.1395625,22 L48.1395625,21.9077088 C49.0875992,20.9936601 49.830127,19.7672857 50.367732,18.230705 L55.2491542,4.22498899 C55.4488026,3.60226439 55.5484314,3.17548994 55.5484314,2.94851916 C55.4747842,2.32425316 55.2327447,1.83119862 54.8219223,1.4666581 C54.6642743,1.34315363 54.4941239,1.21791508 54.3163548,1.09325455 L54.3163548,1 L62.2304005,1 L68.3595273,17.4363073 C68.8018012,18.6108522 69.1325298,19.3940748 69.3542528,19.7890579 C69.7213167,20.4333621 70.318113,21.1385515 71.1395625,21.9077088 L71.1395625,21.969172 L61.3620669,22 L61.3620669,21.9077088 C62.2448565,21.3782388 62.6883025,20.7287324 62.6883025,19.959575 L62.6253995,19.3543838 L62.4329791,18.7459171 L61.3628483,15.6457813 L61.3628483,15.6457813 Z" id="Fill-10" fill="#00573C"></path>
                    <path d="M77.8907969,5.56388542 L77.8907969,17.4673279 C77.8907969,18.6925462 77.9206021,19.5146892 77.9794942,19.9283617 C78.1041015,20.8115825 78.4915689,21.471686 79.1395625,21.9077088 L79.1395625,22 L71.1395625,22 L71.1395625,21.9077088 C71.7981494,21.3978916 72.1863351,20.7389441 72.3023239,19.9283617 C72.3596002,19.534342 72.3894054,18.7135478 72.3894054,17.4673279 L72.3894054,5.56388542 C72.3894054,4.31901424 72.3596002,3.48665957 72.3023239,3.07202363 C72.1757417,2.19053692 71.7886333,1.52792866 71.1395625,1.09325455 L71.1395625,1 L79.1395625,1 L79.1395625,1.09325455 C78.482771,1.60133771 78.0945854,2.26144121 77.9794942,3.07202363 C77.9206021,3.46777745 77.8907969,4.2980127 77.8907969,5.56388542" id="Fill-11" fill="#00573C"></path>
                    <path d="M94.0348805,9.5160287 L100.334203,19.7566886 C100.929353,20.7239155 101.532017,21.4404727 102.139562,21.9077088 L102.139562,22 L99.1324447,22 C98.2612219,22 97.5325424,21.959731 96.9462182,21.8761102 C95.7711286,21.710988 94.900657,21.4092594 94.3334889,20.9730439 C93.8970324,20.631239 93.5037708,20.1632322 93.1495724,19.5701795 L92.4353538,18.3553655 L89.201181,12.6533507 L89.201181,17.4363073 C89.201181,18.6925462 89.2316052,19.5229742 89.2922659,19.9283617 C89.4220385,20.8021414 89.8280707,21.4610889 90.5069822,21.9077088 L90.5069822,22 L82.1395625,22 L82.1395625,21.9077088 C82.828052,21.3978916 83.2329574,20.7389441 83.3542788,19.9283617 C83.4134371,19.534342 83.4453637,18.7037214 83.4453637,17.4363073 L83.4453637,5.56388542 C83.4453637,4.31901424 83.4134371,3.48665957 83.3542788,3.07202363 C83.2222526,2.17936179 82.8177227,1.52041434 82.1395625,1.09325455 L82.1395625,1 L90.5069822,1 L90.5069822,1.09325455 C89.8691998,1.57050976 89.465609,2.23022791 89.2922659,3.07202363 C89.2316052,3.63232164 89.201181,4.46313491 89.201181,5.56388542 L89.201181,10.4418306 L93.0879727,5.37718365 C93.2808474,5.13903773 93.5892216,4.73827437 94.0147855,4.17836171 C94.3492644,3.7003358 94.5158466,3.2481283 94.5158466,2.82212456 C94.5158466,2.48070501 94.3856984,2.12618357 94.1222094,1.76202841 C93.9178786,1.53544297 93.6361726,1.31039893 93.2705182,1.09325455 L93.2705182,1 L100.89461,1 L100.89461,1.09325455 L94.0348805,9.5160287" id="Fill-12" fill="#00573C"></path>
                    <g id="Group-16" transform="translate(101.139562, 0.000000)" fill="#00573C">
                        <path d="M10.3302857,6.09242857 L8.10312605,12.5018929 L12.6475966,12.5018929 L10.3302857,6.09242857 Z M13.7340504,15.5219821 L7.14131092,15.5219821 L5.92840336,18.9070357 C5.79327731,19.2875179 5.72430252,19.6782143 5.72430252,20.0812857 C5.7787563,20.6636964 6.03509244,21.1490714 6.49169748,21.5423214 L6.91522689,21.9059107 L6.91522689,22 L0.0816806723,22 L0.0816806723,21.9059107 C1.0612437,20.9740536 1.82783193,19.7237857 2.3812437,18.1572679 L7.42084034,3.87867857 C7.62776471,3.24382143 7.73243697,2.80873214 7.73243697,2.57733929 C7.65337815,1.94091071 7.40430252,1.43825 6.98016807,1.06660714 C6.81741176,0.940696429 6.64295798,0.813017857 6.45781513,0.685928571 L6.45781513,0.590857143 L14.629916,0.590857143 L20.956437,17.3473929 C21.4122353,18.5448214 21.7544874,19.3433036 21.9848067,19.7459821 C22.367395,20.4028393 22.9790924,21.1217679 23.827563,21.9059107 L23.827563,21.9685714 L13.732437,22 L13.732437,21.9059107 C14.6468571,21.366125 15.1024538,20.7039643 15.1024538,19.9198214 L15.0375126,19.3028393 L14.8406723,18.6825179 L13.7340504,15.5219821 L13.7340504,15.5219821 Z" id="Fill-13"></path>
                        <path d="M21.9295462,2.97883929 C21.0298487,2.97883929 20.4354958,2.39426786 20.4354958,1.52939286 C20.4354958,0.659803571 21.0298487,0.0775892857 21.9295462,0.0775892857 C22.8296471,0.0775892857 23.4288403,0.659803571 23.4288403,1.52939286 C23.4288403,2.39426786 22.8296471,2.97883929 21.9295462,2.97883929 L21.9295462,2.97883929 Z M21.9295462,0.300142857 C21.1625546,0.300142857 20.6867899,0.778642857 20.6867899,1.52939286 C20.6867899,2.28466071 21.1625546,2.76316071 21.9295462,2.76316071 C22.694521,2.76316071 23.1706891,2.28466071 23.1706891,1.52939286 C23.1706891,0.778642857 22.694521,0.300142857 21.9295462,0.300142857 L21.9295462,0.300142857 Z M22.349042,2.29625 L21.9011092,1.65864286 L21.6147227,1.65864286 L21.6147227,2.29625 L21.3591933,2.29625 L21.3591933,0.664714286 C21.5556303,0.659803571 21.6431597,0.654303571 21.8184202,0.654303571 C22.2588908,0.654303571 22.549916,0.762535714 22.549916,1.1385 L22.549916,1.15342857 C22.549916,1.41644643 22.4034958,1.56042857 22.1762017,1.617 L22.6614454,2.29625 L22.349042,2.29625 Z M22.2824874,1.1385 C22.2824874,0.901017857 22.1189244,0.854857143 21.8184202,0.854857143 L21.6147227,0.854857143 L21.6147227,1.467125 L21.844437,1.467125 C22.1237647,1.467125 22.2824874,1.395625 22.2824874,1.15342857 L22.2824874,1.1385 L22.2824874,1.1385 Z" id="Fill-15"></path>
                    </g>
                </g>
            </g>
        </g>
    </g>
</svg>