<svg version="1.1" id="Layer_1" xmlns="http://www.w3.org/2000/svg" x="0" y="0" viewBox="0 0 399.68 253.31" xml:space="preserve"><linearGradient id="SVGID_1_" gradientUnits="userSpaceOnUse" x1="-221.106" y1="424.298" x2="-220.399" y2="423.59"><stop offset="0" stop-color="#20ac4b"/><stop offset=".983" stop-color="#19361a"/></linearGradient><path d="M247.34 208.27c0-1.84.19-3.39.53-4.89 1.84-9.18 7.3-13.02 15.09-13.02 6.17 0 9.64 2.22 11.22 4.29l-3.88 3.16c-1.17-1.32-2.94-3.05-7.6-3.05-5.46 0-9.03 2.94-10.39 9.22-.23 1.17-.38 2.48-.38 3.65 0 4.67 2.48 7.41 8.36 7.41 5.68 0 7.19-2.03 8.32-7.41l.11-.64h-7.98l.79-4.1h12.65l-.83 4.22c-1.81 9.22-4.74 12.01-13.33 12.01-8.84-.01-12.68-4.08-12.68-10.85zm41.63.26h-6.81l-2.22 10.16h-4.44l5.95-27.89h10.16c8.02 0 10.5 3.05 10.5 6.85 0 5.72-2.52 9.97-8.54 10.76l3.69 10.28h-4.63l-3.66-10.16zm2.33-4.18c3.84 0 6.06-1.66 6.06-5.76 0-2.48-1.96-3.58-6.14-3.58h-6.17l-2.07 9.33h8.32zm11.75 3.5c0-1.43.15-2.94.49-4.63 2.15-10.2 8.66-12.87 15.47-12.87 8.28 0 13.1 3.91 13.1 11.22 0 1.43-.15 2.94-.49 4.55-2.22 10.28-8.62 13.02-15.43 13.02-8.36.01-13.14-3.95-13.14-11.29zm23.94-2.1c.26-1.24.41-2.41.41-3.54 0-4.48-2.52-7.45-8.62-7.45-5.72 0-9.33 2.82-10.69 9.11-.26 1.2-.38 2.41-.38 3.54 0 4.48 2.48 7.49 8.51 7.49 5.76-.01 9.37-2.76 10.77-9.15zm7.82 5.34c0-1.2.19-2.48.45-3.69l3.58-16.6h4.55l-3.5 16.41c-.23 1.09-.41 2.07-.41 3.01 0 2.86 1.62 4.71 6.93 4.71 5.01 0 6.89-2.26 7.83-6.78l3.73-17.35h4.44l-3.95 18.26c-1.17 5.42-3.61 10.13-12.53 10.13-8.9-.01-11.12-3.85-11.12-8.1zm33.5-20.29H379c7.64 0 10.12 2.94 10.12 6.96 0 6.62-3.24 11.44-10.91 11.44h-9.33l-2.07 9.49h-4.44l5.94-27.89zm9.75 14.19c4.03 0 6.32-1.92 6.32-6.4 0-2.37-1.69-3.58-5.95-3.58h-6.51l-2.22 9.97h8.36zm-270.72-39.42c-11.58 0-16.44-4.41-13.68-19.86l10.95-61.67h16.66l-10.84 61.24c-.77 4.74-.66 5.62 7.39 5.62l-2.54 14.45c-2.54.11-4.41.22-7.94.22m13.8-22.06c0-3.64.44-7.61 1.1-11.69 3.42-19.53 11.25-30.12 30.45-30.12 18.64 0 24.49 9.27 24.49 22.73 0 3.75-.44 7.83-1.21 12.02-3.53 20.08-10.92 29.9-30.34 29.9-18.42-.01-24.49-9.16-24.49-22.84m37.95-8.28c.66-3.64 1.21-6.73 1.21-9.27 0-5.52-2.1-8.72-9.04-8.72-8.39 0-10.37 5.85-12.25 16.44-.66 3.42-.99 6.51-.99 9.05 0 5.62 2.1 9.04 8.82 9.04 8.5.01 10.37-5.62 12.25-16.54m17.03 30.66l14.41-81.86h16.66l-4 22.07c3.42-3.09 8.72-4.41 14.9-4.41 14.45 0 18.42 8.49 18.42 19.75 0 4.52-.66 9.71-1.54 14.56-3.09 17.21-8.5 30.12-24.38 30.12-11.69 0-16.11-2.32-18.64-5.52l-3.64 5.4-12.19-.11m41.73-30.44c.77-3.86 1.22-7.17 1.22-9.82 0-5.4-1.88-8.38-8.06-8.38-8.5 0-10.59 4.97-12.69 16.22-.66 3.31-.99 6.4-.99 8.94 0 5.96 2.1 9.27 9.6 9.27 6.95-.01 9.05-4.75 10.92-16.23m22.1 2.1l6.18-34.75h16.66l-6.18 34.97c-1.44 8.6-2.1 13.68 6.29 13.68 7.83 0 8.6-3.53 10.26-12.36l6.29-36.29h16.43l-6.61 38.06c-3.31 18.86-9.16 25.37-26.92 25.37-22.73 0-25.71-9.82-22.4-28.68m82.9-9.27c-5.62-2.54-8.93-4.08-8.93-6.84 0-3.53 2.41-5.24 6.7-5.66 3.87-.38 9.72.11 14.7 1.72l2.77-13.1c-3.27-1.49-8.49-2.7-16.78-2.7-10.92 0-23.72 3.75-23.72 20.41 0 9.05 5.08 13.24 13.57 17.21 8.27 3.75 10.15 4.75 10.15 7.94 0 4.19-2.54 5.19-6.17 5.19-7.65 0-13.15-2.1-19.4-4.39l-3.37 14.2c6.74 2.25 13.46 3.86 22.22 3.86 11.25 0 22.61-4.08 22.61-19.64-.01-9.7-4.97-14.01-14.35-18.2m-227.77-40L92.04 105c-7.49-2.43-14.58-3.64-21.28-3.64-6.7 0-12.33 1.39-16.88 4.17-4.55 2.78-7.89 6.26-10.01 10.44-2.12 4.17-3.25 8.38-3.39 12.61-.12 3.57.47 6.92 1.78 10.05 1.3 3.13 3.29 5.65 5.97 7.55 2.68 1.9 5.88 2.85 9.59 2.85 1.6 0 3.16-.15 4.7-.44 1.54-.29 2.87-.62 3.99-.97s2.1-.69 2.95-1l1.81-10.82H58.63l2.36-14.58h29.06l-6.36 39.51c-2.6 1.1-5.29 2.12-8.07 3.06-2.77.94-5.88 1.76-9.32 2.47-3.44.71-6.88 1.06-10.32 1.06-4.89 0-9.46-.76-13.7-2.29a31.658 31.658 0 01-11.3-7.03c-3.3-3.15-5.81-7.03-7.53-11.64-1.72-4.61-3.03-9.92-2.83-15.96.14-4.19.55-9.33 2.07-14.23 2.76-8.89 8.67-19.19 22.98-26.39 6.57-3.31 15.38-5.14 25.68-5.14 8.19 0 16.1 1.21 23.73 3.64m253.54 12.48c-3.31 0-5.48-2.21-5.48-5.47 0-3.28 2.18-5.47 5.48-5.47 3.31 0 5.51 2.19 5.51 5.47 0 3.26-2.2 5.47-5.51 5.47m0-10.1c-2.81 0-4.56 1.8-4.56 4.64 0 2.85 1.75 4.66 4.56 4.66 2.81 0 4.56-1.8 4.56-4.66 0-2.84-1.74-4.64-4.56-4.64zm1.54 7.52l-1.64-2.4h-1.05v2.4h-.94v-6.15c.72-.02 1.05-.04 1.68-.04 1.62 0 2.69.41 2.69 1.82v.06c0 .99-.53 1.53-1.38 1.75l1.79 2.56h-1.15zm-.24-4.36c0-.89-.6-1.07-1.71-1.07h-.74v2.31h.84c1.03 0 1.6-.27 1.6-1.18v-.06zm-11.47-17.57S357.7 17 275.38 18.67c-79.36 1.61-144.74 63.8-144.74 63.8s45.71-33.65 125.58-36.31c79.87-2.66 82.23 30.09 82.23 30.09zM23.44 177.93s-18.49 59.73 66.6 58.72c83.06-.99 149.15-64.75 149.15-64.75s-48.6 33.78-128.47 36.44c-79.87 2.67-87.28-30.41-87.28-30.41z" fill="#232c64"/></svg>