<?xml version="1.0" encoding="UTF-8"?>
<svg width="77px" height="21px" viewBox="0 0 77 21" version="1.1" xmlns="http://www.w3.org/2000/svg" xmlns:xlink="http://www.w3.org/1999/xlink">
    <title>Riley</title>
    <defs>
        <polygon id="path-1" points="0.00775013095 0.121791045 36.8028322 0.121791045 36.8028322 16 0.00775013095 16"></polygon>
        <polygon id="path-3" points="0.01488 0.205297297 30.85244 0.205297297 30.85244 17.7657568 0.01488 17.7657568"></polygon>
    </defs>
    <g id="Desktop" stroke="none" stroke-width="1" fill="none" fill-rule="evenodd">
        <g id="01-Home" transform="translate(-1273.000000, -1144.000000)">
            <g id="Group-2" transform="translate(0.000000, 924.000000)">
                <g id="Riley" transform="translate(1273.000000, 220.000000)">
                    <polyline id="Fill-18" fill="#1A1919" points="35.1174475 2.01441728 40.6715867 2 37.2259748 18 31.6715867 18 35.1174475 2.01441728"></polyline>
                    <g id="Group-22" transform="translate(39.671587, 5.000000)">
                        <mask id="mask-2" fill="white">
                            <use xlink:href="#path-1"></use>
                        </mask>
                        <g id="Clip-20"></g>
                        <path d="M12.773443,5.34662687 C12.9375839,4.08835821 11.8454631,3.30316418 9.93834899,3.30768193 C8.01012752,3.31295522 6.7754698,3.89086567 6.16683221,5.3640597 L12.773443,5.34662687 Z M17.4702081,9.10829851 C16.7835973,10.3257313 15.6336174,11.3301493 14.0654631,12.0169552 C12.4970604,12.7030448 10.5077501,13.0915821 7.95797987,13.0973961 C2.12861745,13.1123582 -0.750677852,11.0729552 0.179785235,6.80716418 C1.05934228,2.77468657 4.74518792,0.505074627 10.198094,0.492343279 C15.5628456,0.479283582 19.1319799,2.19677612 17.7734094,8.0198209 L5.58054362,8.05110448 C5.39902013,8.88214925 6.02901342,10.1619104 8.46753691,10.1547463 C9.90904698,10.151403 10.8156711,9.85026866 11.573302,9.1238209 L17.4702081,9.10829851 L17.4702081,9.10829851 Z" id="Fill-19" fill="#1A1919" mask="url(#mask-2)"></path>
                        <path d="M19.0443221,12.3625075 C19.4788859,12.4028657 19.7614765,12.4236418 20.4058725,12.4212537 C21.5573423,12.4191045 22.0328792,12.3758806 22.6621275,11.5204776 L23.1130805,10.8804776 L19.8218188,0.164059701 L25.6298255,0.150925373 L27.0047852,6.13850746 L30.9945772,0.137552239 L36.8028322,0.121791045 L27.0380604,13.7060299 C25.8101074,15.3721791 24.9871678,15.9918806 22.0172349,16.0000581 C20.7761208,16.0028657 19.2911544,15.8992239 18.2909128,15.8180299 L19.0443221,12.3625075" id="Fill-21" fill="#1A1919" mask="url(#mask-2)"></path>
                    </g>
                    <path d="M26.0473261,3.10843941 C26.0473261,3.10843941 28.2949857,2.8812431 30.479321,3.08456636 C32.6622544,3.29030375 31.3114154,4.82193409 30.6244293,5.34767761 C29.9374432,5.87342113 28.0554752,7.05392991 25.6715867,8 C25.6715867,8 27.3525996,5.20738993 26.9572321,4.24468917 C26.5627993,3.28252489 26.0473261,3.10843941 26.0473261,3.10843941" id="Fill-23" fill="#1A1919"></path>
                    <g id="Group-27" transform="translate(0.671587, 0.000000)">
                        <mask id="mask-4" fill="white">
                            <use xlink:href="#path-3"></use>
                        </mask>
                        <g id="Clip-25"></g>
                        <path d="M30.85244,5.40997297 C30.85244,5.40997297 28.183712,7.02754054 24.397992,8.44248649 L22.454912,17.6266216 L28.23232,17.6266216 L29.269456,12.8091892 L30.85244,5.40997297" id="Fill-24" fill="#1A1919" mask="url(#mask-4)"></path>
                        <path d="M15.653512,5.30197297 C14.496096,7.89664865 7.554328,8.67210811 7.554328,8.67210811 L9.181208,3.63624324 C9.181208,3.63624324 16.810928,2.7072973 15.653512,5.30197297 Z M21.820032,2.64648649 C20.975096,0.235216216 15.718736,0.205297297 15.718736,0.205297297 L5.178736,0.205297297 L0,17.7657568 L4.918336,17.7657568 C4.918336,17.7657568 5.769472,15.4503243 6.191816,14.4707838 C6.614656,13.4912432 6.986656,13.2917838 8.112328,13.0013514 C10.19404,12.4645135 10.993592,13.4535405 10.993592,13.4535405 L14.543216,17.6268649 L20.862752,17.6268649 L16.099912,10.629 C19.976648,8.25664865 22.665216,5.05775676 21.820032,2.64648649 L21.820032,2.64648649 Z" id="Fill-26" fill="#1A1919" mask="url(#mask-4)"></path>
                    </g>
                </g>
            </g>
        </g>
    </g>
</svg>