<?xml version="1.0" encoding="UTF-8"?>
<svg width="90px" height="30px" viewBox="0 0 90 30" version="1.1" xmlns="http://www.w3.org/2000/svg" xmlns:xlink="http://www.w3.org/1999/xlink">
    <title>Showa</title>
    <defs>
        <polygon id="path-1" points="0.00669584245 0.109897233 50.9081554 0.109897233 50.9081554 27.950419 0.00669584245 27.950419"></polygon>
        <polygon id="path-3" points="0.107565868 0.0135294118 36.9392934 0.0135294118 36.9392934 11.9929412 0.107565868 11.9929412"></polygon>
    </defs>
    <g id="Desktop" stroke="none" stroke-width="1" fill="none" fill-rule="evenodd">
        <g id="01-Home" transform="translate(-432.000000, -1137.000000)">
            <g id="Group-2" transform="translate(0.000000, 924.000000)">
                <g id="Showa" transform="translate(432.000000, 213.000000)">
                    <path d="M48.671491,20.3722649 C48.9592991,20.3722649 49.1933243,20.6384399 49.1933243,20.9653922 L49.1933243,23.8133794 C49.1933243,24.4688704 49.6607306,25 50.2369909,25 C50.8132512,25 51.2804428,24.4688704 51.2804428,23.8133794 L51.2804428,20.9653922 C51.2804428,19.3298987 50.1103167,18 48.671491,18 L36.8890726,18 C35.4503542,18 34.2804428,19.3298987 34.2804428,20.9653922 L34.2804428,23.8133794 C34.2804428,24.4688704 34.7474197,25 35.3237874,25 C35.8998329,25 36.3671319,24.4688704 36.3671319,23.8133794 L36.3671319,20.9653922 C36.3671319,20.6384399 36.6011571,20.3722649 36.8890726,20.3722649 L48.671491,20.3722649" id="Fill-1" fill="#84BF41"></path>
                    <path d="M43.2805457,0 C42.7282362,0 42.2804428,0.472641552 42.2804428,1.05551545 L42.2804428,15.9445932 C42.2804428,16.5275757 42.7282362,17 43.2805457,17 C43.8328551,17 44.2804428,16.5275757 44.2804428,15.9445932 L44.2804428,1.05551545 C44.2804428,0.472641552 43.8328551,0 43.2805457,0" id="Fill-2" fill="#84BF41"></path>
                    <path d="M36.9720192,15.75782 C36.6749489,15.75782 36.4334824,15.5062538 36.4334824,15.1971308 L36.4334824,10.7823235 C36.4334824,10.1635007 35.9513247,9.66140648 35.3569626,9.66140648 C34.7622682,9.66140648 34.2804428,10.1635007 34.2804428,10.7823235 L34.2804428,15.1971308 C34.2804428,16.7428613 35.4875539,18 36.9720192,18 L37.5884234,18 C39.0728887,18 40.2804428,16.7428613 40.2804428,15.1971308 L40.2804428,3.12103233 C40.2804428,2.50197888 39.7982851,2 39.2035907,2 C38.6090071,2 38.1268494,2.50197888 38.1268494,3.12103233 L38.1268494,15.1971308 C38.1268494,15.5062538 37.8857152,15.75782 37.5884234,15.75782 L36.9720192,15.75782" id="Fill-3" fill="#84BF41"></path>
                    <g id="Group-7" transform="translate(0.280443, 2.000000)">
                        <mask id="mask-2" fill="white">
                            <use xlink:href="#path-1"></use>
                        </mask>
                        <g id="Clip-5"></g>
                        <path d="M47.5746302,13.3104032 C47.2757724,13.3104032 47.0321554,13.0690277 47.0321554,12.7724269 L47.0321554,1.18551779 C47.0321554,0.591541502 46.5464836,0.109897233 45.9478753,0.109897233 C45.3485974,0.109897233 44.8632604,0.591541502 44.8632604,1.18551779 L44.8632604,12.7724269 C44.8632604,14.2555415 46.0792254,15.4617549 47.5746302,15.4617549 L48.1960044,15.4617549 C49.691744,15.4617549 50.9081554,14.2555415 50.9081554,12.7724269 L50.9081554,5.32431621 C50.9081554,4.73022925 50.4224836,4.24858498 49.8234289,4.24858498 C49.2243742,4.24858498 48.7384792,4.73022925 48.7384792,5.32431621 L48.7384792,12.7724269 C48.7384792,13.0690277 48.4951969,13.3104032 48.1960044,13.3104032 L47.5746302,13.3104032" id="Fill-4" fill="#84BF41" mask="url(#mask-2)"></path>
                        <path d="M12.7016783,27.950419 L1.08472648,27.950419 C0.485671772,27.950419 0,27.468664 0,26.8749091 C0,26.2802688 0.485671772,25.7989565 1.08472648,25.7989565 L12.7016783,25.7989565 C13.0005361,25.7989565 13.24393,25.557913 13.24393,25.2610909 L13.24393,23.8751462 C13.24393,23.5783241 13.0005361,23.3421502 12.7016783,23.3421502 L2.71293217,23.3421502 C1.21663457,23.3421502 0,22.140917 0,20.6580237 L0,19.4265771 C0,17.9434625 1.21663457,16.7374704 2.7117046,16.7374704 L14.3286565,16.7374704 C14.9277112,16.7374704 15.4133829,17.219004 15.4133829,17.8129802 C15.4133829,18.4070672 14.9277112,18.8887115 14.3286565,18.8887115 L2.7117046,18.8887115 C2.41273523,18.8887115 2.16978775,19.130087 2.16978775,19.4265771 L2.16978775,20.6580237 C2.16978775,20.9542925 2.41273523,21.1910198 2.7117046,21.1910198 L12.7004508,21.1910198 C14.1969716,21.1910198 15.4133829,22.3920316 15.4133829,23.8751462 L15.4133829,25.2610909 C15.4133829,26.7442055 14.1969716,27.950419 12.7016783,27.950419" id="Fill-6" fill="#1A1919" mask="url(#mask-2)"></path>
                    </g>
                    <path d="M32.2804428,19.0550845 C32.2804428,18.4723886 31.808007,18 31.2249017,18 C30.6422309,18 30.1690348,18.4723886 30.1690348,19.0550845 L30.1690348,21.8460969 C30.1690348,22.1146994 29.9676794,22.3646279 29.7075682,22.3646279 C29.6881278,22.3646279 19.9196756,22.3646279 19.9196756,22.3646279 C19.7391725,22.3646279 19.5622535,22.3823248 19.3918508,22.4167415 L19.3918508,19.0550845 C19.3918508,18.4723886 18.9190891,18 18.3358753,18 C17.7532044,18 17.2804428,18.4723886 17.2804428,19.0550845 L17.28066,27.9449155 C17.28066,28.5273942 17.7532044,29 18.3364183,29 C18.9190891,29 19.392068,28.5273942 19.392068,27.9449155 L19.392068,25.0021221 C19.392068,24.7336281 19.5915771,24.4840254 19.8533174,24.4840254 C19.8813377,24.4840254 29.6413186,24.4845682 29.6413186,24.4845682 C29.8220389,24.4845682 29.9984149,24.4658942 30.1690348,24.4311517 L30.1690348,27.9449155 C30.1690348,28.5273942 30.6415793,29 31.2249017,29 C31.8077898,29 32.2804428,28.5273942 32.2804428,27.9449155 L32.2804428,19.0550845" id="Fill-8" fill="#1A1919"></path>
                    <path d="M36.8890726,27.7138658 C36.6011571,27.7138658 36.3671319,27.4580088 36.3671319,27.1426556 C36.3671319,26.5114789 35.8998329,26 35.3237874,26 C34.7474197,26 34.2804428,26.5114789 34.2804428,27.1426556 C34.2804428,28.7181281 35.4503542,30 36.8890726,30 L48.671491,30 C50.1103167,30 51.2804428,28.7181281 51.2804428,27.1426556 C51.2804428,26.5114789 50.8132512,26 50.2369909,26 C49.6607306,26 49.1933243,26.5114789 49.1933243,27.1426556 C49.1933243,27.4580088 48.9592991,27.7138658 48.671491,27.7138658 L36.8890726,27.7138658" id="Fill-9" fill="#1A1919"></path>
                    <path d="M85.169252,20.6380371 C85.169252,20.3471777 84.9325997,20.1103862 84.641753,20.1103862 L74.9200014,20.1103862 C74.6289375,20.1103862 74.3918508,20.3471777 74.3918508,20.6380371 L74.3918508,22.4167415 L74.3921766,22.4167415 C74.5624707,22.3823248 74.7393898,22.3646279 74.9202186,22.3646279 C74.9202186,22.3646279 84.6884536,22.3646279 84.7080026,22.3646279 C84.9680053,22.3646279 85.169252,22.1146994 85.169252,21.8460969 L85.169252,20.6380371 Z M74.3918508,27.9449155 C74.3918508,28.5273942 73.9191977,29 73.3363097,29 C72.7532044,29 72.2804428,28.5273942 72.2804428,27.9449155 L72.2804428,20.6380371 C72.2804428,19.1830887 73.4645733,18 74.9200014,18 L84.641753,18 C86.0966381,18 87.2804428,19.1830887 87.2804428,20.6380371 L87.2804428,27.9449155 C87.2804428,28.5273942 86.8081156,29 86.2247931,29 C85.6422309,29 85.169252,28.5273942 85.169252,27.9449155 L85.169252,24.4311517 C84.9988493,24.4658942 84.8224733,24.4845682 84.641753,24.4845682 C84.641753,24.4845682 74.8816635,24.4840254 74.8537518,24.4840254 C74.5921201,24.4840254 74.3921766,24.7336281 74.3921766,25.0021221 L74.3918508,27.9449155 L74.3918508,27.9449155 Z" id="Fill-10" fill="#1A1919"></path>
                    <g id="Group-14" transform="translate(52.280443, 18.000000)">
                        <mask id="mask-4" fill="white">
                            <use xlink:href="#path-3"></use>
                        </mask>
                        <g id="Clip-12"></g>
                        <path d="M7.26374251,9.66023529 C7.44807784,9.66023529 7.62820359,9.67952941 7.80245808,9.71694118 L7.80245808,1.15729412 C7.80245808,0.525647059 8.28478743,0.0135294118 8.87878144,0.0135294118 C9.47388323,0.0135294118 9.95565868,0.525647059 9.95565868,1.15729412 L9.95565868,9.71694118 C10.1295808,9.67952941 10.3101497,9.66023529 10.494485,9.66023529 L14.9586347,9.66023529 C15.2554102,9.66023529 15.4967964,9.404 15.4967964,9.08847059 L15.4967964,1.17094118 C15.4967964,0.539529412 15.9794581,0.0276470588 16.5738952,0.0276470588 C17.1686647,0.0276470588 17.6505509,0.539529412 17.6505509,1.17094118 L17.6505509,9.08847059 C17.6505509,10.6650588 16.4428443,11.9472941 14.9586347,11.9472941 L2.79948204,11.9472941 C1.3150509,11.9472941 0.107565868,10.6650588 0.107565868,9.08847059 L0.107565868,1.17094118 C0.107565868,0.539529412 0.589452096,0.0276470588 1.18411078,0.0276470588 C1.77888024,0.0276470588 2.26120958,0.539529412 2.26120958,1.17094118 L2.26120958,9.08847059 C2.26120958,9.404 2.50259581,9.66023529 2.79948204,9.66023529 L7.26374251,9.66023529" id="Fill-11" fill="#1A1919" mask="url(#mask-4)"></path>
                        <path d="M36.0577186,10.9843529 C36.1805719,10.9843529 36.2501407,10.9163529 36.2501407,10.8197647 C36.2501407,10.712 36.1805719,10.6554118 36.0577186,10.6554118 L35.8279641,10.6554118 L35.8279641,10.9843529 L36.0577186,10.9843529 Z M35.646509,10.5815294 C35.646509,10.5303529 35.6836198,10.4850588 35.7369042,10.4850588 L36.0736707,10.4850588 C36.2820449,10.4850588 36.4371347,10.5929412 36.4371347,10.8025882 C36.4371347,10.9558824 36.3569311,11.0637647 36.2287605,11.1149412 L36.4103263,11.3417647 C36.4315958,11.3704706 36.4371347,11.3927059 36.4371347,11.4155294 C36.4371347,11.4667059 36.3996916,11.5121176 36.3516138,11.5121176 C36.3141707,11.5121176 36.2873623,11.4891765 36.265982,11.4609412 L36.0203862,11.1431765 L35.8279641,11.1431765 L35.8279641,11.4098824 C35.8279641,11.4667059 35.7852036,11.5121176 35.7369042,11.5121176 C35.6836198,11.5121176 35.646509,11.4667059 35.646509,11.4098824 L35.646509,10.5815294 Z M36.815997,11.0070588 L36.815997,11.0011765 C36.815997,10.5285882 36.4703683,10.1396471 36.0097515,10.1396471 C35.5538982,10.1396471 35.2032844,10.5342353 35.2032844,11.0070588 L35.2032844,11.0127059 C35.2032844,11.4851765 35.5489132,11.8745882 36.0097515,11.8745882 C36.4650509,11.8745882 36.815997,11.4795294 36.815997,11.0070588 Z M35.079988,11.0129412 L35.079988,11.0070588 C35.079988,10.4681176 35.4911976,10.0142353 36.0097515,10.0142353 C36.5331796,10.0142353 36.9392934,10.4622353 36.9392934,11.0011765 L36.9392934,11.0070588 C36.9392934,11.5461176 36.5277515,12 36.0097515,12 C35.4861018,12 35.079988,11.5516471 35.079988,11.0129412 L35.079988,11.0129412 Z" id="Fill-13" fill="#1A1919" mask="url(#mask-4)"></path>
                    </g>
                </g>
            </g>
        </g>
    </g>
</svg>