<?xml version="1.0" encoding="UTF-8"?>
<svg width="144px" height="18px" viewBox="0 0 144 18" version="1.1" xmlns="http://www.w3.org/2000/svg" xmlns:xlink="http://www.w3.org/1999/xlink">
    <title>Skytec</title>
    <defs>
        <polygon id="path-1" points="0 0.01125 41.9460915 0.01125 41.9460915 17.9925 0 17.9925"></polygon>
        <polygon id="path-3" points="0.0516554509 0.057125 94.9833782 0.057125 94.9833782 17.9925 0.0516554509 17.9925"></polygon>
    </defs>
    <g id="Desktop" stroke="none" stroke-width="1" fill="none" fill-rule="evenodd">
        <g id="01-Home" transform="translate(-1033.000000, -1145.000000)">
            <g id="Group-2" transform="translate(0.000000, 924.000000)">
                <g id="Skytec" transform="translate(1033.000000, 221.000000)">
                    <g id="Group-4" transform="translate(0.106800, 0.000000)">
                        <mask id="mask-2" fill="white">
                            <use xlink:href="#path-1"></use>
                        </mask>
                        <g id="Clip-2"></g>
                        <polyline id="Fill-1" fill="#777776" mask="url(#mask-2)" points="32.964622 17.97125 4.67698171 17.9765 29.1214939 9.504125 32.964622 17.97125"></polyline>
                        <polyline id="Fill-3" fill="#000000" mask="url(#mask-2)" points="41.9460915 17.969125 35.4641341 17.970625 29.9741707 6.759 0 18 32.3407683 0.01125 41.9460915 17.969125"></polyline>
                    </g>
                    <path d="M141.605521,0.180120251 C140.927772,0.180461388 140.3779,0.548462752 140.3779,1.00055435 C140.3779,1.45230481 140.93033,1.81996503 141.6068,1.81996503 C142.28455,1.8196239 142.836979,1.45204895 142.836979,1.00055435 C142.836979,0.548206899 142.28455,0.180120251 141.605521,0.180120251 Z M141.6068,2 L141.6068,2 C140.780713,2 140.108079,1.55174619 140.1068,1.00072492 C140.1068,0.449277216 140.779434,0.000426421048 141.604243,0 C142.432887,0 143.1068,0.448850795 143.1068,1.00055435 C143.1068,1.55123449 142.434166,1.99965886 141.6068,2 L141.6068,2 Z" id="Fill-5" fill="#000000"></path>
                    <g id="Group-10" transform="translate(48.106800, 0.000000)">
                        <mask id="mask-4" fill="white">
                            <use xlink:href="#path-3"></use>
                        </mask>
                        <g id="Clip-7"></g>
                        <path d="M93.839031,0.920125 L93.839031,1.4 L94.1676312,1.4 C94.2878197,1.4 94.3888291,1.3735 94.4744953,1.314375 C94.5294751,1.274125 94.5588829,1.221375 94.5588829,1.152 C94.5588829,1.083375 94.5269179,1.028375 94.4655451,0.984 C94.4028937,0.943375 94.3044415,0.920125 94.1676312,0.920125 L93.839031,0.920125 Z M93.4311575,0.60825 L93.992463,0.60825 C94.2929341,0.60825 94.5039031,0.62675 94.6176985,0.666375 C94.7340511,0.705125 94.8222746,0.769375 94.8862046,0.860375 C94.9526918,0.948625 94.9833782,1.050625 94.9833782,1.167875 C94.9833782,1.274125 94.955249,1.363 94.8964334,1.43225 C94.840175,1.501375 94.7404441,1.56275 94.5959623,1.611875 L94.9693136,2.394625 L94.5652759,2.395125 L94.2200538,1.6775 L93.839031,1.6775 L93.839031,2.395125 L93.4311575,2.395125 L93.4311575,0.60825 L93.4311575,0.60825 Z" id="Fill-6" fill="#000000" mask="url(#mask-4)"></path>
                        <path d="M0.916756393,17.995625 L0.916117093,14.515125 L9.29312248,14.513625 C10.5512651,14.5125 11.446541,14.3645 11.9541454,14.0735 C12.4420592,13.795625 12.6789838,13.322625 12.6789838,12.627375 C12.6789838,11.287375 11.7213122,10.635875 9.75124495,10.635875 L6.43327725,10.63625 C4.31271871,10.63625 2.75781292,10.231875 1.81164872,9.434125 C0.643647376,8.44 0.0516554509,7.075125 0.0516554509,5.376875 C0.0516554509,4.23875 0.37884926,3.177375 1.02415882,2.22225 C1.67777927,1.255875 2.5643607,0.619875 3.65935397,0.332125 C4.32281965,0.151 5.48532301,0.0625 7.2116891,0.061875 L16.7705047,0.060375 L16.7705047,3.54025 L8.05620458,3.542375 C6.91850606,3.542375 6.12308883,3.594 5.69207268,3.695625 C4.96467699,3.86875 4.61088829,4.391625 4.61088829,5.2945 C4.61088829,5.99425 4.82288022,6.464875 5.25888291,6.7335 C5.71508748,7.014125 6.5447712,7.156375 7.72491925,7.156375 L10.6268304,7.155875 C13.1339098,7.155875 14.9028533,7.6605 15.8886541,8.655625 C16.8170458,9.575875 17.2884665,10.929375 17.2884665,12.6775 C17.2889771,13.69025 17.03786,14.659 16.541891,15.556375 C15.9833984,16.52 15.2377187,17.19225 14.3239031,17.5575 C13.564031,17.847125 12.1529677,17.993375 10.1274092,17.993875 L0.916756393,17.995625" id="Fill-8" fill="#000000" mask="url(#mask-4)"></path>
                        <polyline id="Fill-9" fill="#000000" mask="url(#mask-4)" points="32.3848991 0.057125 27.765572 0.05825 23.2381763 6.2895 23.2367699 0.059375 18.900397 0.059875 18.90321 17.992625 23.2408614 17.991375 23.2393271 11.59425 27.764677 17.991 32.3796568 17.989 26.1599058 8.907125 32.3848991 0.057125"></polyline>
                    </g>
                    <polyline id="Fill-11" fill="#000000" points="85.409382 18 85.4076686 10.1469783 80.1068002 2.14416248 81.6268886 0.00326184685 83.4623825 0.00263456861 87.6190657 6.72354454 91.990852 0.00112910083 97.1068002 0 89.715662 10.2847286 89.7175073 17.9993727 85.409382 18"></polyline>
                    <path d="M132.661744,18 L132.661744,18 C131.104274,18 129.864446,17.8686369 128.976842,17.6098003 C128.079888,17.3469487 127.261192,16.8749451 126.543167,16.2070888 C124.926396,14.6978566 124.1068,12.2778657 124.1068,9.01386401 C124.10565,7.02622939 124.460948,5.29542397 125.162834,3.86987767 C125.875095,2.43479594 126.890524,1.40534625 128.180816,0.809633012 C129.353401,0.273265256 130.913433,0.00112919527 132.820565,0.000627330708 L139.102958,0 L139.102958,3.49247552 L133.265007,3.49423204 C131.612757,3.49423204 130.4216,3.89233611 129.727399,4.67762869 C129.028075,5.4724567 128.673289,6.85120413 128.673289,8.77522741 C128.673289,10.8751542 129.03576,12.3749765 129.746611,13.232663 C130.447217,14.0776775 131.676798,14.5061444 133.404616,14.5061444 L139.1068,14.5048897 L139.1068,17.9983689 L132.661744,18" id="Fill-12" fill="#000000"></path>
                    <path d="M98.4866556,0.000251054779 L96.1068002,3.48915932 L101.877333,3.48915932 L101.877333,18 L105.966611,18 L105.966611,3.49832281 L110.111104,3.49832281 C110.111104,3.49832281 110.579746,1.69336448 113.1068,0 L98.4866556,0.000251054779" id="Fill-13" fill="#000000"></path>
                    <path d="M119.532266,18 L119.532141,18 C117.645224,18 116.165779,17.8509379 115.134165,17.5572053 C114.089432,17.2587047 113.193893,16.7224325 112.472289,15.9628181 C110.902752,14.3156068 110.1068,11.9774148 110.1068,9.01311194 C110.105801,5.72822518 111.126668,3.18977812 113.141538,1.46853761 C113.789795,0.925740814 114.484034,0.54053828 115.206638,0.322340492 C115.917747,0.108408791 116.883384,0 118.076687,0 L124.1068,0 L123.748185,0.303268575 C123.739438,0.310922437 122.819283,1.1121939 121.817909,3.32340701 C121.805788,3.34975637 121.783921,3.39555407 121.783921,3.39555407 L121.737314,3.49292122 L119.529017,3.4930467 C118.288857,3.4930467 117.369077,3.57949769 116.795417,3.75014116 C116.243749,3.91551475 115.780923,4.24237228 115.419933,4.72142872 C115.170402,5.05719484 115.002215,5.38493068 114.921245,5.69484933 C114.84265,5.98958573 114.771926,6.51745122 114.705826,7.30579895 L120.875262,7.3041678 L120.876387,10.7983438 L114.709075,10.8001004 C114.847148,12.1442941 115.266491,13.1003994 115.957357,13.6429453 C116.687708,14.2151028 117.940238,14.5051967 119.679711,14.5051967 L121.917246,14.5051967 L121.945736,14.641586 C121.945861,14.6420879 121.954732,14.6846233 121.958106,14.6979234 C122.540388,16.6765093 123.728817,17.6826784 123.740937,17.6927163 L124.106175,17.9967377 L119.532266,18" id="Fill-14" fill="#000000"></path>
                </g>
            </g>
        </g>
    </g>
</svg>